# xmcd
#
# Track frame offsets:
#	150
#	8965
#	19030
#	30517
#	42942
#	44615
#	57207
#	69062
#	79430
#	90165
#	99757
#	102425
#	113922
#	128020
#	154805
#
# Disc length: 2160 seconds
#
# Revision: 1
# Processed by: cddbd v1.5.1PL0 Copyright (c) Steve Scherf et al.
# Submitted via: CDex 1.50Beta5
#
DISCID=ae086e0f
DTITLE=チューリップ - ALL BECAUSE OF YOU GUYS〜すべて君たちのせいさ〜/OTO GRA・音蔵シリーズ
DYEAR=1993
DGENRE=
TTITLE0=オール・ビコーズ・オブ・ユー・ガイズ
TTITLE1=ウイ・キャン・ワーク・イット・アウト
TTITLE2=ユア・マザー・シュッド・ノウ
TTITLE3=アイ・ニード・ユー
TTITLE4=アナザー・ガール
TTITLE5=ヒア・ゼア・アンド・エブリホエア
TTITLE6=ナイト・ビフォー
TTITLE7=ブラック・バード
TTITLE8=ウェイト
TTITLE9=フォー・ノー・ワン
TTITLE10=レディー・マドンナ
TTITLE11=マーサ・マイ・ディア
TTITLE12=ツー・オブ・アス
TTITLE13=ヘイ・ジュード
TTITLE14=オール・ビコーズ・オブ・ユー・ガイズ
EXTD=
EXTT0=
EXTT1=
EXTT2=
EXTT3=
EXTT4=
EXTT5=
EXTT6=
EXTT7=
EXTT8=
EXTT9=
EXTT10=
EXTT11=
EXTT12=
EXTT13=
EXTT14=
PLAYORDER=
